<?xml version="1.0" encoding="UTF-8" standalone="no"?>
<!-- Created with Inkscape (http://www.inkscape.org/) -->

<svg
   width="123.50562mm"
   height="40.866924mm"
   viewBox="0 0 123.50562 40.866924"
   version="1.1"
   id="svg5"
   sodipodi:docname="logo-lluna-lang-js.svg"
   inkscape:version="1.1.2 (0a00cf5339, 2022-02-04)"
   xmlns:inkscape="http://www.inkscape.org/namespaces/inkscape"
   xmlns:sodipodi="http://sodipodi.sourceforge.net/DTD/sodipodi-0.dtd"
   xmlns:xlink="http://www.w3.org/1999/xlink"
   xmlns="http://www.w3.org/2000/svg"
   xmlns:svg="http://www.w3.org/2000/svg">
  <sodipodi:namedview
     id="namedview15"
     pagecolor="#ffffff"
     bordercolor="#666666"
     borderopacity="1.0"
     inkscape:pageshadow="2"
     inkscape:pageopacity="0.0"
     inkscape:pagecheckerboard="0"
     inkscape:document-units="mm"
     showgrid="false"
     inkscape:zoom="1.1830737"
     inkscape:cx="240.89793"
     inkscape:cy="161.44388"
     inkscape:window-width="1920"
     inkscape:window-height="1011"
     inkscape:window-x="0"
     inkscape:window-y="32"
     inkscape:window-maximized="1"
     inkscape:current-layer="svg5" />
  <defs
     id="defs2">
    <linearGradient
       id="linearGradient35380">
      <stop
         style="stop-color:#ffff88;stop-opacity:1"
         offset="0"
         id="stop35376" />
      <stop
         style="stop-color:#ff9933;stop-opacity:1"
         offset="1"
         id="stop35378" />
    </linearGradient>
    <linearGradient
       xlink:href="#linearGradient35380"
       id="linearGradient35382"
       x1="79.992493"
       y1="27.004339"
       x2="118.5842"
       y2="67.473541"
       gradientUnits="userSpaceOnUse" />
  </defs>
  <g
     aria-label="lluna lang"
     id="text1779"
     style="font-size:16.9333px;line-height:1.25;font-family:Pecita;-inkscape-font-specification:Pecita;fill:#ffff88;stroke:#331122;stroke-width:1.565;paint-order:stroke fill markers">
    <path
       id="path849"
       d="m 116.84447,14.876279 c 0,0.474133 -0.49107,1.168398 -1.3208,1.79493 -0.13547,-0.372532 -0.2032,-0.711198 -0.2032,-0.948265 0,-0.880531 0.37253,-1.354664 1.016,-1.354664 0.32173,0 0.508,0.186267 0.508,0.507999 z m -1.35467,7.958651 c 0,-0.507999 0.27093,-1.236131 0.93133,-2.031996 0.3556,0.745066 0.59267,1.422398 0.59267,1.862663 0,0.643466 -0.33867,1.015998 -0.84667,1.015998 -0.32173,0 -0.67733,-0.372532 -0.67733,-0.846665 z m 3.72533,-5.418656 c -0.0847,0 -0.16934,0.01693 -0.254,0.06773 -0.88053,0.524932 -1.64253,1.066797 -2.26906,1.608663 -0.27094,-0.491066 -0.54187,-0.999065 -0.762,-1.456264 0.99906,-0.694265 1.93039,-1.64253 1.93039,-2.760128 0,-0.863598 -0.6604,-1.523997 -1.52399,-1.523997 -1.38853,0 -2.032,1.219198 -2.032,2.370662 0,0.491066 0.13547,0.999065 0.33867,1.507064 -0.8128,0.440266 -1.65947,0.694265 -2.20133,0.694265 -0.82973,0 -1.08373,-0.423332 -1.18533,-1.405464 -0.1016,-0.914398 -0.23707,-2.319862 -1.524,-2.319862 -1.23613,0 -1.8288,1.185331 -2.31986,2.150529 -0.5588,1.100665 -0.89747,1.574797 -1.23613,1.574797 -0.13547,0 -0.23707,-0.135466 -0.33867,-1.066798 -0.0677,-0.592665 -0.13547,-1.981196 -1.35466,-1.981196 -1.016,0 -1.43933,1.066798 -1.7272,1.625597 -0.37253,0.694265 -0.8128,1.422397 -1.65946,1.422397 -0.27094,0 -0.508,0.237067 -0.508,0.507999 0,0.270933 0.23706,0.507999 0.508,0.507999 1.52399,0 2.23519,-1.303864 2.57386,-1.964262 0.38946,-0.761999 0.64346,-1.083732 0.8128,-1.083732 0.13546,0 0.23706,0.135467 0.33866,1.066798 0.0677,0.592666 0.13547,1.981196 1.35467,1.981196 1.18533,0 1.69333,-1.219197 2.15053,-2.150529 0.52493,-1.066798 0.94826,-1.574797 1.40546,-1.574797 0.23707,0 0.37253,0.186267 0.508,1.405464 0.13546,1.151465 0.6604,2.319862 2.20133,2.319862 0.79586,0 1.74413,-0.304799 2.62466,-0.778931 0.27093,0.558798 0.57573,1.134531 0.8636,1.676396 -0.93133,1.015998 -1.45627,2.04893 -1.45627,2.997194 0,0.880532 0.6604,1.862663 1.69333,1.862663 1.18533,0 1.86267,-0.982131 1.86267,-2.031996 0,-0.829731 -0.38947,-1.727196 -0.84667,-2.641594 0.59267,-0.541866 1.35467,-1.117598 2.286,-1.659464 0.1524,-0.1016 0.254,-0.270933 0.254,-0.440266 0,-0.304799 -0.254,-0.507999 -0.508,-0.507999 z M 96.69384,17.75494 c -0.423332,0 -0.677332,-0.270932 -0.677332,-0.846665 0,-1.269997 1.168398,-2.539995 2.370662,-2.539995 0.575733,0 1.015998,0.440266 1.015998,0.999065 0,1.286931 -1.828796,2.387595 -2.709328,2.387595 z m -3.555993,-4.910657 c 0,0.254 0.2032,0.507999 0.507999,0.507999 0.186267,0 0.3556,-0.08467 0.440266,-0.253999 0.01693,-0.03387 0.914398,-1.625597 0.914398,-3.4713266 0,-1.0329313 -0.643465,-1.862663 -1.523997,-1.862663 -2.539995,0 -3.38666,4.8767906 -3.38666,7.6199846 0,1.930397 0.761999,4.402658 3.555993,4.402658 2.455329,0 4.656658,-1.049864 5.892789,-2.438395 0.152399,0.711199 0.558795,1.59173 1.557865,1.59173 0.27093,0 0.508,-0.237066 0.508,-0.507999 0,-0.270932 -0.23707,-0.507999 -0.508,-0.507999 -0.508,0 -0.67733,-1.100664 -0.67733,-2.539995 0,-1.134531 -0.914402,-2.031996 -2.032,-2.031996 -1.845729,0 -3.38666,1.777997 -3.38666,3.555993 0,0.609599 0.220133,1.219198 0.728132,1.574797 -0.643465,0.186267 -1.354664,0.287866 -2.082796,0.287866 -1.947329,0 -2.539995,-1.59173 -2.539995,-3.38666 0,-3.014127 1.185331,-6.6039866 2.370662,-6.6039866 0.135467,0 0.507999,0.1862663 0.507999,0.846665 0,1.7779966 -0.846665,2.8278606 -0.846665,3.2173266 z m -13.207956,1.862663 c 0,-0.0508 -0.01693,-0.101599 -0.03387,-0.152399 -0.237066,-0.728132 -0.931332,-1.202265 -1.659463,-1.202265 -1.557864,0 -2.980261,1.337731 -3.420527,2.827861 -0.321733,0.795866 -1.456264,1.74413 -2.506128,1.74413 -0.270933,0 -0.507999,0.237067 -0.507999,0.507999 0,0.270933 0.237066,0.507999 0.507999,0.507999 0.948264,0 1.862663,-0.440265 2.523061,-1.066798 0.237066,0.609599 0.761999,1.066798 1.540931,1.066798 1.083731,0 2.116662,-0.541865 2.997194,-1.371597 0.101599,0.457199 0.338666,1.371597 0.897465,1.371597 0.287866,0 0.507999,-0.253999 0.507999,-0.507999 0,-0.101599 -0.03387,-0.203199 -0.08467,-0.287866 -0.270933,-0.389466 -0.423332,-0.965198 -0.423332,-1.74413 0,-0.237066 -0.220133,-0.507999 -0.507999,-0.507999 -0.1524,0 -0.287867,0.06773 -0.389466,0.186267 -0.965198,1.202264 -2.031996,1.845729 -2.997194,1.845729 -0.423333,0 -0.677332,-0.270932 -0.677332,-0.846665 0,-1.253064 1.354664,-2.709328 2.539995,-2.709328 0.287866,0 0.609598,0.2032 0.711198,0.491066 0.06773,0.2032 0.254,0.355599 0.474133,0.355599 0.304799,0 0.507999,-0.253999 0.507999,-0.507999 z m -7.111972,3.725326 c 0,-0.270932 -0.237066,-0.507999 -0.507999,-0.507999 -0.321733,0 -0.677332,-0.203199 -0.677332,-1.523997 0,-1.236131 -0.118533,-2.539995 -1.354664,-2.539995 -1.066798,0 -1.659464,1.049865 -2.285996,1.99813 -0.728132,1.083731 -1.151464,1.557863 -1.43933,1.557863 -0.118533,0 -0.338666,-0.0508 -0.338666,-1.523997 0,-1.303864 -0.254,-2.539995 -1.523997,-2.539995 -1.049865,0 -1.574797,0.931332 -2.150529,2.065863 -0.880532,1.777996 -1.269998,2.506128 -2.252129,2.506128 -0.270933,0 -0.507999,0.237067 -0.507999,0.507999 0,0.270933 0.237066,0.507999 0.507999,0.507999 1.727196,0 2.353729,-1.473197 3.166527,-3.08186 0.609599,-1.236131 0.931331,-1.490131 1.236131,-1.490131 0.287866,0 0.507999,0.118533 0.507999,1.523997 0,1.236131 0.118533,2.539995 1.354664,2.539995 1.066798,0 1.659463,-1.049864 2.285995,-1.998129 0.728132,-1.083731 1.151465,-1.557864 1.439331,-1.557864 0.118533,0 0.338666,0.0508 0.338666,1.523997 0,1.388531 0.491066,2.539995 1.69333,2.539995 0.270933,0 0.507999,-0.237066 0.507999,-0.507999 z m -14.223971,-5.07999 c -0.270933,0 -0.491066,0.220133 -0.507999,0.491066 -0.06773,1.74413 -0.880532,3.742259 -2.201329,3.742259 -0.880532,0 -1.354664,-0.541865 -1.354664,-1.523997 0,-0.304799 0.03387,-0.965198 0.1524,-1.59173 0,-0.03387 0.01693,-0.06773 0.01693,-0.1016 0,-0.253999 -0.2032,-0.507999 -0.507999,-0.507999 -0.220133,0 -0.423333,0.135467 -0.491066,0.3556 -0.423332,1.38853 -1.456264,3.708392 -3.23426,3.708392 -0.270933,0 -0.507999,0.237067 -0.507999,0.507999 0,0.270933 0.237066,0.507999 0.507999,0.507999 1.49013,0 2.523062,-1.015998 3.166527,-2.031996 0.287866,1.015998 1.100665,1.69333 2.252129,1.69333 1.134531,0 1.930396,-0.761998 2.421462,-1.64253 0.287866,1.371598 0.965198,1.981196 1.981196,1.981196 0.270933,0 0.507999,-0.237066 0.507999,-0.507999 0,-0.270932 -0.237066,-0.507999 -0.507999,-0.507999 -0.609599,0 -1.049865,-0.135466 -1.168398,-2.810927 -0.01693,-0.372533 -0.01693,-0.795866 -0.01693,-1.253065 0,-0.237066 -0.2032,-0.507999 -0.507999,-0.507999 z M 43.523333,11.150953 c 0,1.540931 -1.303865,3.166527 -2.133596,3.996259 -0.0508,-0.389466 -0.06773,-0.829732 -0.06773,-1.286931 0,-2.438395 0.948264,-4.0639916 1.523997,-4.0639916 0.338666,0 0.677332,0.5249326 0.677332,1.3546636 z m 5.926655,-0.507999 c 0,1.253065 -0.829732,3.132661 -2.031996,4.656658 -0.118534,-0.575732 -0.169333,-1.236131 -0.169333,-1.94733 0,-2.438395 0.948264,-4.0639916 1.523997,-4.0639916 0.338666,0 0.677332,0.5249323 0.677332,1.3546636 z m -5.926655,8.297317 c 1.253064,0 2.472261,-0.745065 3.539059,-1.74413 0.660399,1.083732 1.811863,1.74413 3.403594,1.74413 0.270932,0 0.507999,-0.237066 0.507999,-0.507999 0,-0.270932 -0.237067,-0.507999 -0.507999,-0.507999 -1.439331,0 -2.184396,-0.558799 -2.658529,-1.49013 1.507064,-1.727197 2.658529,-3.996259 2.658529,-5.791189 0,-0.8635979 -0.338666,-2.3706616 -1.69333,-2.3706616 -1.79493,0 -2.539995,2.7770616 -2.539995,5.0799896 0,1.032932 0.101599,2.015063 0.389465,2.861728 -1.049864,1.049865 -2.184395,1.710263 -3.098793,1.710263 -0.948265,0 -1.540931,-0.491065 -1.89653,-1.608663 0.592665,-0.524932 2.912528,-2.675462 2.912528,-5.164657 0,-0.863598 -0.338666,-2.3706616 -1.69333,-2.3706616 -1.79493,0 -2.539995,2.7770616 -2.539995,5.0799896 0,2.709328 0.829731,5.07999 3.217327,5.07999 z" />
  </g>
  <circle
     style="fill:#ff9933;fill-opacity:1;stroke:#331122;stroke-width:4.565;stroke-linecap:round;stroke-miterlimit:4;stroke-dasharray:none;stroke-opacity:1;paint-order:stroke markers fill"
     id="path13469"
     cx="20.433462"
     cy="20.433462"
     r="15.150962" />
  <circle
     style="fill:#331122;fill-opacity:1;stroke-width:0.200239;stroke-linecap:round;paint-order:stroke markers fill"
     id="circle13551"
     cx="24.136007"
     cy="16.730917"
     r="11.448419" />
  <circle
     style="fill:#ffff88;fill-opacity:1;stroke-width:0.152106;stroke-linecap:round;paint-order:stroke markers fill"
     id="circle14039"
     cx="24.136007"
     cy="16.730917"
     r="8.6964808" />
  <g
     aria-label="JavaScript"
     id="text5897"
     style="font-size:14.1111px;line-height:1.25;font-family:Pecita;-inkscape-font-specification:Pecita;fill:#ff9933;stroke:#331122;stroke-width:1.565;paint-order:stroke fill markers">
    <path
       id="path868"
       d="m 105.11488,23.481208 c -0.21167,0 -0.36689,0.155222 -0.40922,0.310444 -0.14111,0.550333 -2.17311,7.30955 -3.96522,7.30955 -0.22578,0 -0.42334,0.197556 -0.42334,0.423333 0,0.225778 0.19756,0.423333 0.42334,0.423333 1.63688,0 2.76577,-2.328331 3.54188,-4.23333 -0.0141,0.268111 -0.0141,0.564444 -0.0141,0.846666 0,1.044222 0.21167,2.328332 0.43745,3.090331 0.0423,0.155222 0.19755,0.296333 0.40922,0.296333 0.18344,0 0.35278,-0.127 0.40922,-0.310444 0.28222,-0.973666 0.53622,-1.523999 0.91722,-1.904998 0.33867,-0.338667 0.90311,-0.620889 1.83444,-0.747889 0.21167,-0.02822 0.36689,-0.211666 0.36689,-0.423333 0,-0.254 -0.19755,-0.423333 -0.42333,-0.423333 h -0.0564 c -1.524,0.211667 -2.38478,0.790222 -2.93511,1.862666 -0.0706,-0.508 -0.11289,-1.001889 -0.11289,-1.439333 0,-2.102554 0.35278,-4.205108 0.42333,-4.586107 v -0.07056 c 0,-0.211666 -0.16933,-0.423333 -0.42333,-0.423333 z m -9.454431,13.264434 c 0.211666,0 0.409222,-0.169333 0.423333,-0.39511 0.07055,-1.058333 0.155222,-1.989666 0.282222,-2.82222 0.606777,-4.219219 1.792109,-5.390441 2.681109,-5.390441 0.691444,0 1.128887,0.564444 1.128887,1.41111 0,0.677333 -0.324555,1.382888 -0.761999,1.608666 -0.127,0.07055 -0.225777,0.211666 -0.225777,0.366888 0,0.225778 0.197555,0.423333 0.423333,0.423333 h 1.128883 c 0.22578,0 0.42334,-0.197555 0.42334,-0.423333 0,-0.225777 -0.19756,-0.423333 -0.42334,-0.423333 h -0.127 c 0.28223,-0.479777 0.40923,-1.015999 0.40923,-1.552221 0,-1.128888 -0.69145,-2.257776 -1.975557,-2.257776 -1.382888,0 -2.441221,1.326444 -3.104442,3.965219 -0.09878,-1.114776 -0.211667,-1.80622 -0.465667,-2.31422 -0.07055,-0.141111 -0.225777,-0.239889 -0.380999,-0.239889 -0.225778,0 -0.381,0.169334 -0.409222,0.338667 -0.155222,0.747888 -1.058333,2.06022 -1.989665,2.06022 -0.225778,0 -0.423333,0.197556 -0.423333,0.423333 0,0.225778 0.197555,0.423333 0.423333,0.423333 1.058332,0 1.834443,-0.804332 2.300109,-1.53811 0.183444,1.284111 0.239889,3.979331 0.239889,5.912551 0,0.183445 0.169333,0.423333 0.423333,0.423333 z M 91.28601,25.033429 c -0.239889,0 -0.423333,0.183445 -0.423333,0.423333 0,0.239889 0.183444,0.705555 0.423333,0.705555 0.239888,0 0.423333,-0.183444 0.423333,-0.423333 0,-0.282222 -0.141111,-0.705555 -0.423333,-0.705555 z m 1.834443,6.491106 c 0,-0.225777 -0.197556,-0.423333 -0.423333,-0.423333 -1.157111,0 -1.552221,-0.987777 -1.552221,-2.539998 0,-0.225777 -0.197556,-0.423333 -0.423333,-0.423333 -0.155223,0 -0.310445,0.09878 -0.381,0.239889 -0.663222,1.326443 -2.285998,2.723442 -3.428998,2.723442 -0.225777,0 -0.423333,0.197556 -0.423333,0.423333 0,0.225778 0.197556,0.423333 0.423333,0.423333 1.298222,0 2.610554,-1.015999 3.499553,-2.130776 0.211667,1.100666 0.874889,2.130776 2.285999,2.130776 0.225777,0 0.423333,-0.197555 0.423333,-0.423333 z M 81.408262,29.40787 c 0,0.945444 -1.749777,1.693332 -3.174998,1.693332 -1.015999,0 -1.693332,-0.465666 -1.693332,-1.269999 0,-0.888999 0.804333,-1.693332 1.693332,-1.693332 0.254,0 0.366889,0.01411 0.522111,0.09878 0.05644,0.02822 0.127,0.04233 0.183444,0.04233 0.211667,0 0.423333,-0.169333 0.423333,-0.423333 0,-0.479777 -0.719666,-0.564444 -1.128888,-0.564444 -0.860777,0 -1.636888,0.465667 -2.102554,1.142999 -0.09878,0.112889 -0.874888,0.127 -1.072444,0.127 -0.225777,0 -0.423333,0.197556 -0.423333,0.423333 0,0.225778 0.197556,0.423333 0.423333,0.423333 0.05644,0 0.225778,0.01411 0.423333,0.01411 0.08467,0 0.169334,-0.01411 0.254,-0.01411 -0.02822,0.141111 -0.04233,0.282222 -0.04233,0.423333 0,1.453444 1.298221,2.116665 2.539998,2.116665 1.396999,0 4.021664,-0.663221 4.021664,-2.539998 0,-0.366888 -0.141111,-0.564444 -0.141111,-0.846666 0,-0.310444 0.931332,-0.423333 1.41111,-0.423333 0.493888,0 0.874888,0.225778 0.987777,1.044222 0.211666,1.509887 0.818443,2.765775 2.398887,2.765775 0.225777,0 0.423333,-0.197555 0.423333,-0.423333 0,-0.225777 -0.197556,-0.423333 -0.423333,-0.423333 -0.959555,0 -1.340555,-0.578555 -1.552221,-2.031998 -0.169334,-1.15711 -0.917222,-1.777999 -1.834443,-1.777999 -0.620889,0 -1.114777,0.141111 -1.396999,0.225778 -0.352778,0.112889 -0.860777,0.409222 -0.860777,1.044221 0,0.366889 0.141111,0.564444 0.141111,0.846666 z m -9.369748,0.310445 c 0.211666,0.169333 0.338666,0.366888 0.338666,0.536221 0,0.409222 -0.465666,0.846666 -0.987777,0.846666 -0.479777,0 -0.705555,-0.211666 -0.705555,-0.423333 0,-0.352777 0.508,-0.733777 1.354666,-0.959554 z m -1.030111,-0.536222 c -0.620888,0.296333 -1.171221,0.77611 -1.171221,1.495776 0,0.917222 0.90311,1.269999 1.552221,1.269999 0.888999,0 1.834443,-0.691444 1.834443,-1.693332 0,-0.253999 -0.08467,-0.507999 -0.211666,-0.719666 0.634999,-0.08467 1.340554,-0.127 2.046109,-0.127 0.225778,0 0.423333,-0.197555 0.423333,-0.423333 0,-0.225777 -0.197555,-0.423333 -0.423333,-0.423333 -1.001888,0 -1.989665,0.07056 -2.850442,0.254 -0.451555,-0.268111 -0.973666,-0.465666 -1.53811,-0.649111 -1.298221,-0.437444 -1.961443,-0.959554 -1.961443,-1.439332 0,-0.733777 1.396999,-1.693332 2.398887,-1.693332 0.536222,0 0.846666,0.282222 0.846666,0.705555 0,0.719666 -0.634999,0.550333 -0.634999,1.058333 0,0.254 0.211666,0.423333 0.423333,0.423333 0.07055,0 0.126999,-0.01411 0.197555,-0.04233 0.02822,-0.01411 0.860777,-0.465666 0.860777,-1.439332 0,-0.987777 -0.818444,-1.552221 -1.693332,-1.552221 -1.255888,0 -3.245553,1.015999 -3.245553,2.539998 0,1.481666 1.820332,1.933221 3.146775,2.455332 z m -4.981209,-0.762 c 0,-0.04233 -0.01411,-0.08467 -0.02822,-0.127 -0.197555,-0.606777 -0.776111,-1.001888 -1.382888,-1.001888 -0.790221,0 -1.552221,0.423333 -2.102554,1.030111 -0.211666,0.08467 -0.747888,0.239888 -1.425221,0.239888 -0.225777,0 -0.423333,0.197556 -0.423333,0.423333 0,0.225778 0.197556,0.423333 0.423333,0.423333 0.282222,0 0.550333,-0.02822 0.776111,-0.05644 -0.141111,0.338666 -0.211667,0.691444 -0.211667,1.044221 0,0.790222 0.493889,1.552221 1.41111,1.552221 0.903111,0 1.763888,-0.451555 2.497665,-1.142999 0.08467,0.381 0.282222,1.142999 0.747888,1.142999 0.239889,0 0.423333,-0.211666 0.423333,-0.423333 0,-0.08467 -0.02822,-0.169333 -0.07055,-0.239888 -0.225778,-0.324556 -0.352778,-0.804333 -0.352778,-1.453444 0,-0.197555 -0.183444,-0.423333 -0.423333,-0.423333 -0.127,0 -0.239889,0.05645 -0.324555,0.155222 -0.804333,1.001889 -1.693332,1.53811 -2.497665,1.53811 -0.352777,0 -0.564444,-0.225777 -0.564444,-0.705555 0,-1.044221 1.128888,-2.257776 2.116665,-2.257776 0.239889,0 0.508,0.169333 0.592666,0.409222 0.05645,0.169333 0.211667,0.296333 0.395111,0.296333 0.254,0 0.423333,-0.211666 0.423333,-0.423333 z m -4.515548,0.564444 c 0,-0.225777 -0.197556,-0.423333 -0.423333,-0.423333 -0.635,0 -0.818444,-0.183444 -1.001888,-0.945443 -0.04233,-0.183445 -0.225778,-0.324556 -0.409222,-0.324556 -0.225778,0 -0.366889,0.155222 -0.409222,0.338667 -0.296333,1.453443 -1.481666,3.47133 -1.989665,3.47133 -0.366889,0 -0.832555,-0.790221 -1.28411,-3.047997 -0.04233,-0.197556 -0.211667,-0.338667 -0.409222,-0.338667 -0.239889,0 -0.409222,0.183445 -0.423333,0.381 -0.09878,0.959555 -1.142999,3.005664 -2.116665,3.005664 -0.225778,0 -0.423333,0.197556 -0.423333,0.423333 0,0.225778 0.197555,0.423333 0.423333,0.423333 1.213554,0 2.017887,-1.199443 2.483553,-2.18722 0.324556,1.15711 0.747889,2.18722 1.749777,2.18722 1.199443,0 2.046109,-1.777998 2.497664,-3.047997 0.310445,0.338666 0.776111,0.507999 1.312333,0.507999 0.225777,0 0.423333,-0.197555 0.423333,-0.423333 z m -9.736657,-0.564444 c 0,-0.04233 -0.01411,-0.08467 -0.02822,-0.127 -0.197556,-0.606777 -0.776111,-1.001888 -1.382888,-1.001888 -1.552221,0 -2.963331,1.608666 -2.963331,3.104442 0,0.790222 0.493888,1.552221 1.41111,1.552221 0.959555,0 1.933221,-0.578555 2.582331,-1.382887 0.211667,0.691443 0.705555,1.382887 1.650999,1.382887 0.225778,0 0.423333,-0.197555 0.423333,-0.423333 0,-0.225777 -0.197555,-0.423333 -0.423333,-0.423333 -0.691444,0 -0.987777,-0.818443 -0.987777,-1.834443 0,-0.211666 -0.169333,-0.423333 -0.423333,-0.423333 -0.183444,0 -0.338666,0.127 -0.395111,0.296333 -0.366888,1.114777 -1.523999,1.961443 -2.427109,1.961443 -0.352778,0 -0.564444,-0.225777 -0.564444,-0.705555 0,-1.044221 1.128888,-2.257776 2.116665,-2.257776 0.239889,0 0.508,0.169333 0.592666,0.409222 0.05645,0.169333 0.211667,0.296333 0.395111,0.296333 0.254,0 0.423333,-0.211666 0.423333,-0.423333 z m -6.067767,-4.23333 c -0.155222,0 -0.310444,0.09878 -0.380999,0.239889 -0.197556,0.395111 -0.324556,1.128888 -0.324556,2.158998 0,1.058333 0.282222,2.187221 0.282222,3.104442 0,0.832555 -1.269999,1.41111 -2.539998,1.41111 -0.818443,0 -1.269999,-0.239888 -1.269999,-0.564444 0,-0.634999 0.564444,-0.52211 0.564444,-0.987777 0,-0.239888 -0.211666,-0.423333 -0.423333,-0.423333 -0.07055,0 -0.141111,0.01411 -0.211666,0.05644 -0.02822,0.01411 -0.776111,0.451555 -0.776111,1.354665 0,1.227666 1.382888,1.41111 2.116665,1.41111 1.269999,0 3.386664,-0.550333 3.386664,-2.257776 0,-1.058332 -0.282222,-2.18722 -0.282222,-3.104442 0,-0.945443 0.155222,-1.622776 0.239889,-1.792109 0.02822,-0.05645 0.04233,-0.127 0.04233,-0.183445 0,-0.211666 -0.169333,-0.423333 -0.423333,-0.423333 z" />
  </g>
</svg>
