<?xml version="1.0" encoding="UTF-8" standalone="no"?>
<!-- Created with Inkscape (http://www.inkscape.org/) -->

<svg
   width="115.69817mm"
   height="40.369595mm"
   viewBox="0 0 115.69817 40.369595"
   version="1.1"
   id="svg5"
   sodipodi:docname="logo.svg"
   inkscape:version="1.2.1 (9c6d41e410, 2022-07-14)"
   xmlns:inkscape="http://www.inkscape.org/namespaces/inkscape"
   xmlns:sodipodi="http://sodipodi.sourceforge.net/DTD/sodipodi-0.dtd"
   xmlns:xlink="http://www.w3.org/1999/xlink"
   xmlns="http://www.w3.org/2000/svg"
   xmlns:svg="http://www.w3.org/2000/svg">
  <sodipodi:namedview
     id="namedview15"
     pagecolor="#ffffff"
     bordercolor="#666666"
     borderopacity="1.0"
     inkscape:pageshadow="2"
     inkscape:pageopacity="0.0"
     inkscape:pagecheckerboard="0"
     inkscape:document-units="mm"
     showgrid="false"
     inkscape:zoom="1.943984"
     inkscape:cx="223.25287"
     inkscape:cy="63.272126"
     inkscape:window-width="1920"
     inkscape:window-height="1011"
     inkscape:window-x="0"
     inkscape:window-y="0"
     inkscape:window-maximized="1"
     inkscape:current-layer="layer1"
     lock-margins="true"
     fit-margin-top="7.5"
     fit-margin-left="7.5"
     fit-margin-right="7.5"
     fit-margin-bottom="7.5"
     inkscape:snap-page="true"
     inkscape:showpageshadow="2"
     inkscape:deskcolor="#d1d1d1" />
  <defs
     id="defs2">
    <linearGradient
       id="linearGradient35380">
      <stop
         style="stop-color:#ffff88;stop-opacity:1"
         offset="0"
         id="stop35376" />
      <stop
         style="stop-color:#ff9933;stop-opacity:1"
         offset="1"
         id="stop35378" />
    </linearGradient>
    <linearGradient
       xlink:href="#linearGradient35380"
       id="linearGradient35382"
       x1="79.992493"
       y1="27.004339"
       x2="118.5842"
       y2="67.473541"
       gradientUnits="userSpaceOnUse" />
  </defs>
  <g
     id="layer1"
     transform="translate(-116.51791,-93.383644)">
    <rect
       style="fill:#331122;fill-opacity:1;stroke-width:0.565309;stroke-linecap:round;stroke-miterlimit:4;stroke-dasharray:none;paint-order:normal"
       id="rect20294"
       width="115.69817"
       height="40.369595"
       x="116.51791"
       y="93.383644" />
    <circle
       style="fill:#ffff88;fill-opacity:1;stroke-width:0.160452;stroke-linecap:round;paint-order:stroke markers fill"
       id="circle14039"
       cx="217.33795"
       cy="110.48149"
       r="9.1736689" />
    <circle
       style="fill:#ff9933;fill-opacity:1;stroke-width:0.264999;stroke-linecap:round;paint-order:stroke markers fill"
       id="path13469"
       cx="137.3275"
       cy="113.26751"
       r="15.150962" />
    <circle
       style="fill:#331122;fill-opacity:1;stroke-width:0.219498;stroke-linecap:round;paint-order:stroke markers fill"
       id="circle13551"
       cx="143.26302"
       cy="110.12209"
       r="12.549538" />
    <circle
       style="fill:#331122;fill-opacity:1;stroke-width:0.157177;stroke-linecap:round;paint-order:stroke markers fill"
       id="circle1374"
       cx="214.42845"
       cy="112.60514"
       r="8.9864092" />
    <g
       aria-label="lluna js"
       id="text1779"
       style="font-size:22.5778px;font-family:Pecita;-inkscape-font-specification:Pecita;fill:#ffff88;stroke-width:0.264583">
      <path
         d="m 139.6013,106.4992 c 0,2.05458 -1.73849,4.22205 -2.84481,5.32836 -0.0677,-0.51929 -0.0903,-1.10631 -0.0903,-1.71591 0,-3.25121 1.26436,-5.41868 2.032,-5.41868 0.45156,0 0.90312,0.69992 0.90312,1.80623 z m 7.90223,-0.67734 c 0,1.67076 -1.10632,4.1769 -2.70934,6.2089 -0.15804,-0.76765 -0.22578,-1.64818 -0.22578,-2.59645 0,-3.2512 1.26436,-5.41867 2.032,-5.41867 0.45156,0 0.90312,0.69991 0.90312,1.80622 z m -7.90223,11.06313 c 1.67075,0 3.29635,-0.99343 4.71876,-2.32552 0.88053,1.44498 2.41582,2.32552 4.53813,2.32552 0.36125,0 0.67734,-0.31609 0.67734,-0.67734 0,-0.36124 -0.31609,-0.67733 -0.67734,-0.67733 -1.91911,0 -2.91253,-0.74507 -3.54471,-1.98685 2.00942,-2.30293 3.54471,-5.32836 3.54471,-7.72161 0,-1.15146 -0.45155,-3.16089 -2.25778,-3.16089 -2.39324,0 -3.38667,3.70276 -3.38667,6.77334 0,1.37725 0.13547,2.68676 0.51929,3.81565 -1.39982,1.39982 -2.91253,2.28036 -4.13173,2.28036 -1.26436,0 -2.05458,-0.65476 -2.52872,-2.14489 0.79023,-0.69991 3.88338,-3.56729 3.88338,-6.88623 0,-1.15147 -0.45155,-3.16089 -2.25778,-3.16089 -2.39324,0 -3.38667,3.70276 -3.38667,6.77334 0,3.61244 1.10632,6.77334 4.28979,6.77334 z"
         id="path1215" />
      <path
         d="m 159.69555,109.43431 c -0.36124,0 -0.65475,0.29351 -0.67733,0.65476 -0.0903,2.32551 -1.17405,4.98969 -2.93512,4.98969 -1.17404,0 -1.80622,-0.72249 -1.80622,-2.032 0,-0.4064 0.0452,-1.28693 0.2032,-2.12231 0,-0.0452 0.0226,-0.0903 0.0226,-0.13547 0,-0.33867 -0.27094,-0.67733 -0.67734,-0.67733 -0.29351,0 -0.56444,0.18062 -0.65475,0.47413 -0.56445,1.85138 -1.94169,4.94454 -4.31236,4.94454 -0.36125,0 -0.67734,0.31609 -0.67734,0.67733 0,0.36125 0.31609,0.67734 0.67734,0.67734 1.98684,0 3.36409,-1.35467 4.22205,-2.70934 0.38382,1.35467 1.46755,2.25778 3.00284,2.25778 1.51272,0 2.57387,-1.016 3.22863,-2.19005 0.38382,1.82881 1.28693,2.64161 2.6416,2.64161 0.36125,0 0.67734,-0.31609 0.67734,-0.67734 0,-0.36124 -0.31609,-0.67733 -0.67734,-0.67733 -0.8128,0 -1.39982,-0.18062 -1.55787,-3.74792 -0.0226,-0.49671 -0.0226,-1.06115 -0.0226,-1.67075 0,-0.31609 -0.27094,-0.67734 -0.67734,-0.67734 z"
         id="path1217" />
      <path
         d="m 178.6609,116.20765 c 0,-0.36124 -0.31609,-0.67733 -0.67733,-0.67733 -0.42898,0 -0.90311,-0.27093 -0.90311,-2.032 0,-1.64818 -0.15805,-3.38667 -1.80623,-3.38667 -1.4224,0 -2.21262,1.39982 -3.048,2.66418 -0.97084,1.44498 -1.53529,2.07715 -1.91911,2.07715 -0.15805,0 -0.45156,-0.0677 -0.45156,-2.032 0,-1.73849 -0.33867,-3.38667 -2.032,-3.38667 -1.39982,0 -2.09974,1.24178 -2.86738,2.75449 -1.17405,2.37067 -1.69334,3.34152 -3.00285,3.34152 -0.36124,0 -0.67733,0.31609 -0.67733,0.67733 0,0.36125 0.31609,0.67734 0.67733,0.67734 2.30294,0 3.13832,-1.96427 4.22205,-4.10916 0.8128,-1.64818 1.24178,-1.98685 1.64818,-1.98685 0.38382,0 0.67733,0.15805 0.67733,2.032 0,1.64818 0.15805,3.38667 1.80623,3.38667 1.4224,0 2.21262,-1.39982 3.048,-2.66418 0.97085,-1.44498 1.53529,-2.07716 1.91911,-2.07716 0.15805,0 0.45156,0.0677 0.45156,2.03201 0,1.85138 0.65476,3.38667 2.25778,3.38667 0.36124,0 0.67733,-0.31609 0.67733,-0.67734 z"
         id="path1219" />
      <path
         d="m 188.14356,111.24054 c 0,-0.0677 -0.0226,-0.13547 -0.0452,-0.2032 -0.31609,-0.97085 -1.24178,-1.60303 -2.21262,-1.60303 -2.07716,0 -3.9737,1.78365 -4.56072,3.7705 -0.42898,1.06115 -1.94169,2.32551 -3.34151,2.32551 -0.36125,0 -0.67734,0.31609 -0.67734,0.67733 0,0.36125 0.31609,0.67734 0.67734,0.67734 1.26435,0 2.48356,-0.58703 3.36409,-1.4224 0.31609,0.8128 1.016,1.4224 2.05458,1.4224 1.44498,0 2.82222,-0.72249 3.99627,-1.8288 0.13547,0.6096 0.45156,1.8288 1.19662,1.8288 0.38383,0 0.67734,-0.33867 0.67734,-0.67734 0,-0.13546 -0.0452,-0.27093 -0.11289,-0.38382 -0.36125,-0.51929 -0.56445,-1.28693 -0.56445,-2.32551 0,-0.31609 -0.29351,-0.67734 -0.67733,-0.67734 -0.2032,0 -0.38382,0.0903 -0.51929,0.24836 -1.28693,1.60302 -2.70934,2.46098 -3.99627,2.46098 -0.56445,0 -0.90311,-0.36125 -0.90311,-1.12889 0,-1.67076 1.80622,-3.61245 3.38667,-3.61245 0.38382,0 0.8128,0.27093 0.94827,0.65476 0.0903,0.27093 0.33866,0.47413 0.63217,0.47413 0.4064,0 0.67734,-0.33867 0.67734,-0.67733 z"
         id="path1221" />
      <path
         d="m 204.62534,105.59609 c -0.45156,0 -0.67734,0.67733 -0.67734,1.12889 0,0.38382 0.29351,0.67733 0.67734,0.67733 0.45155,0 0.67733,-0.67733 0.67733,-1.12889 0,-0.38382 -0.29351,-0.67733 -0.67733,-0.67733 z m 0,3.83822 c -0.36125,0 -0.67734,0.31609 -0.67734,0.67734 0,3.31893 1.12889,6.93138 1.12889,9.93423 0,2.14489 -1.10631,3.16089 -1.58044,3.16089 -0.15805,0 -0.45156,-0.22578 -0.45156,-0.67733 0,-0.36125 -0.31609,-0.67734 -0.67733,-0.67734 -0.36125,0 -0.67734,0.31609 -0.67734,0.67734 0,0.90311 0.6096,2.032 1.80623,2.032 1.78364,0 2.93511,-2.14489 2.93511,-4.51556 0,-3.31894 -1.12889,-6.93139 -1.12889,-9.93423 0,-0.36125 -0.31609,-0.67734 -0.67733,-0.67734 z"
         id="path1223" />
      <path
         d="m 212.07601,115.73352 c 0,0.2032 0.0903,0.38382 0.22578,0.51929 0.11289,0.0903 0.72249,0.63218 1.80622,0.63218 2.00943,0 3.83823,-1.71592 3.83823,-3.83823 0,-1.89653 -1.37725,-3.61245 -3.38667,-3.61245 -1.85138,0 -4.49298,1.19663 -6.27663,2.50614 -3.47698,2.55129 -6.59272,6.47983 -6.59272,10.58899 0,0.36124 0.31609,0.67733 0.67734,0.67733 0.36124,0 0.67733,-0.31609 0.67733,-0.67733 0,-3.43183 2.75449,-7.08943 6.05085,-9.50526 1.60302,-1.17404 4.15432,-2.2352 5.46383,-2.2352 1.15147,0 2.032,0.99342 2.032,2.25778 0,1.35467 -1.19662,2.48356 -2.48356,2.48356 -0.85795,0 -0.76764,-0.45156 -1.35467,-0.45156 -0.36124,0 -0.67733,0.27094 -0.67733,0.65476 z"
         id="path1225" />
    </g>
  </g>
</svg>
